 <svg
      xmlns="http://www.w3.org/2000/svg"
      x="0"
      y="0"
      enableBackground="new 0 0 512 512"
      version="1.1"
      viewBox="0 0 512 512"
      xmlSpace="preserve"
    >
      <path
        fill="#AA603B"
        d="M160.326 366.993L503.633 366.993 503.633 7.719 144.956 7.719 144.358 351.026"
      ></path>
      <g fill="#B3B3B3">
        <path d="M176.291 39.655H399.84000000000003V183.364H176.291z"></path>
        <path d="M335.972 223.282H455.73299999999995V255.216H335.972z"></path>
        <path d="M335.972 287.15H455.73299999999995V319.084H335.972z"></path>
      </g>
      <path fill="#C5FFCA" d="M176.291 71.587H240.159V95.539H176.291z"></path>
      <g fill="#99C6E4">
        <path d="M304.038 39.655H423.799V87.55799999999999H304.038z"></path>
        <path d="M176.291 39.655H224.194V71.589H176.291z"></path>
      </g>
      <path fill="#C5FFCA" d="M296.052 87.559H439.761V151.427H296.052z"></path>
      <path
        fill="#FFF"
        d="M399.954 151.802L440.09 151.802 440.09 87.995 424.653 87.995 424.653 63.296 424.653 63.296 423.795 39.655 471.993 39.626 471.993 183.705 399.954 183.705z"
      ></path>
      <path
        fill="#B3B3B3"
        d="M144.728 78.733L7.852 78.733 7.852 502.738 255.874 502.738 255.874 366.892 144.728 366.892z"
      ></path>
      <path
        fill="#F2BF7E"
        d="M8.632 79.573H144.35500000000002V143.441H8.632z"
      ></path>
      <circle cx="144.357" cy="366.99" r="15.968" fill="#FFF"></circle>
      <path fill="#F2BF7E" d="M8.632 438.845H256.129V502.713H8.632z"></path>
      <path d="M511.352 374.712L176.294 374.712 176.294 359.275 495.915 359.275 495.915 15.437 152.675 15.437 152.675 335.058 137.238 335.058 137.238 0 511.352 0z"></path>
      <path d="M144.358 390.68c-13.06 0-23.687-10.626-23.687-23.687 0-13.06 10.626-23.687 23.687-23.687s23.687 10.626 23.687 23.687c0 13.061-10.626 23.687-23.687 23.687zm0-31.935c-4.549 0-8.25 3.701-8.25 8.25 0 4.549 3.701 8.25 8.25 8.25s8.25-3.701 8.25-8.25-3.701-8.25-8.25-8.25z"></path>
      <path d="M89.154 462.597H176.631V478.034H89.154z"></path>
      <path d="M248.671 382.329v48.369H16.085V151.802h112.176v-15.437H16.085v-48.37h112.176V72.558H.648V512h263.459V382.329h-15.436zM16.085 496.563v-50.428H248.67v50.428H16.085z"></path>
      <path d="M89.154 104.457H128.261V119.89399999999999H89.154z"></path>
      <path
        fill="#FFF"
        d="M112.824 375.125L32.552 375.125 32.552 312.347 96.358 312.347 96.358 295.881 64.455 295.881 64.455 222.812 32.552 222.812 32.552 207.375 79.892 207.375 79.892 280.444 111.795 280.444 111.795 327.784 47.989 327.784 47.989 359.688 112.824 359.688z"
      ></path>
      <path d="M168.576 31.936v159.147h310.841V31.936H168.576zm15.437 15.437h32.754v16.952h-32.754V47.373zm0 32.389h48.191v8.233h-48.191v-8.233zm207.708 95.884H184.013v-40.31h96.561v-15.437h-96.561v-16.466h63.628V64.325h-15.437V47.373H415.39v8.719H287.778v15.437h16.466v8.31h-15.91v79.308h103.387v16.499zm40.322-80.369v48.434H303.771V95.277h128.272zM319.681 79.839v-8.31h40.136v8.31h-40.136zm55.573 0v-8.31h40.136v8.31h-40.136zm88.725 95.807h-56.822v-16.498h40.324V79.839h-16.654v-8.31h16.466V56.092h-16.466v-8.719h33.152v128.273z"></path>
      <path d="M184.864 215.604H280.574V231.04100000000003H184.864z"></path>
      <g fill="#FFF">
        <path d="M184.864 248.537H216.767V263.974H184.864z"></path>
        <path d="M184.864 312.343H200.30100000000002V327.78000000000003H184.864z"></path>
        <path d="M216.767 312.343H232.204V327.78000000000003H216.767z"></path>
        <path d="M248.671 312.343H264.108V327.78000000000003H248.671z"></path>
        <path d="M280.574 312.343H297.04V327.78000000000003H280.574z"></path>
      </g>
      <path d="M184.864 280.44H297.04V295.877H184.864z"></path>
      <path d="M463.448 326.81H328.253v-47.372h135.196l-.001 47.372zM343.69 311.373h104.322v-16.498H343.69v16.498zM463.448 262.937H328.253v-47.372h135.196l-.001 47.372zM343.69 247.5h104.322v-16.498H343.69V247.5z"></path>
    </svg>