<svg width="59" height="75" viewBox="0 0 59 75" fill="none" xmlns="http://www.w3.org/2000/svg">
<path d="M35.2073 60.7683C30.2363 60.7683 25.2633 60.7159 20.2923 60.7994C18.783 60.8246 18.1851 60.2656 17.8213 58.8329C15.1491 48.2916 12.3704 37.7757 9.70208 27.2325C9.35571 25.8619 8.81004 25.3553 7.38395 25.4504C5.39284 25.5824 3.38044 25.5474 1.38546 25.4348C0.907514 25.4077 0.460529 24.7942 0 24.4525C0.445049 24.1536 0.882359 23.6081 1.33708 23.5945C4.06349 23.513 6.79571 23.48 9.51825 23.6139C10.0678 23.6411 10.8573 24.3574 11.0566 24.9262C11.6564 26.6404 12.1266 28.4186 12.4401 30.2085C12.7323 31.8702 13.4173 32.4138 15.1897 32.4022C29.0133 32.309 42.8389 32.3497 56.6625 32.3517C59.1993 32.3517 59.3096 32.4915 58.6749 34.9414C56.6064 42.9414 54.505 50.9318 52.4926 58.9474C52.1462 60.3277 51.5309 60.8188 50.1203 60.7994C45.1512 60.7256 40.1783 60.7683 35.2073 60.7683ZM43.0382 41.136C46.8772 41.136 50.5537 41.1574 54.2302 41.1011C54.5727 41.0953 55.1145 40.6624 55.2132 40.3246C55.7724 38.4221 56.2252 36.4866 56.7496 34.4192C52.0901 34.4192 47.6029 34.4192 43.0382 34.4192C43.0382 36.6478 43.0382 38.7541 43.0382 41.136ZM15.2942 41.0137C19.41 41.0137 23.3225 41.0137 27.2254 41.0137C27.2254 38.7366 27.2254 36.5876 27.2254 34.4463C22.6433 34.4463 18.2064 34.4463 13.5992 34.4463C14.1893 36.7351 14.7331 38.8395 15.2942 41.0137ZM40.8826 43.2268C36.9875 43.2268 33.2761 43.2268 29.5358 43.2268C29.5358 45.502 29.5358 47.6491 29.5358 49.8272C33.3768 49.8272 37.0881 49.8272 40.8826 49.8272C40.8826 47.6122 40.8826 45.5117 40.8826 43.2268ZM40.8497 34.4153C37.0049 34.4153 33.2878 34.4153 29.5339 34.4153C29.5339 36.6866 29.5339 38.8356 29.5339 41.0312C33.369 41.0312 37.0823 41.0312 40.8497 41.0312C40.8497 38.7696 40.8497 36.6148 40.8497 34.4153ZM40.8652 52.0558C37.0397 52.0558 33.3187 52.0558 29.5474 52.0558C29.5474 54.3174 29.5474 56.4606 29.5474 58.5766C33.4039 58.5766 37.1191 58.5766 40.8652 58.5766C40.8652 56.3247 40.8652 54.2204 40.8652 52.0558ZM52.7751 49.8757C53.3266 47.6704 53.8703 45.4904 54.4353 43.2268C50.4376 43.2268 46.7689 43.2268 43.0885 43.2268C43.0885 45.5078 43.0885 47.6627 43.0885 49.8757C46.3471 49.8757 49.4818 49.8757 52.7751 49.8757ZM15.8457 43.1084C16.4804 45.5602 17.0338 47.7015 17.5775 49.802C20.9135 49.802 24.0888 49.802 27.2873 49.802C27.2873 47.5578 27.2873 45.4477 27.2873 43.2792C26.9274 43.2132 26.6391 43.1162 26.3508 43.1142C22.9645 43.1045 19.5783 43.1084 15.8457 43.1084ZM43.0672 51.9335C43.0672 54.3563 43.0672 56.4529 43.0672 58.5941C45.6137 58.5941 48.0557 58.5941 50.5092 58.5941C51.0762 56.3791 51.6141 54.2805 52.1849 52.0578C51.529 52.0073 51.0588 51.9393 50.5886 51.9374C48.1195 51.9277 45.6524 51.9335 43.0672 51.9335ZM18.1716 52.048C18.6979 54.1058 19.1603 56.0296 19.7041 57.9282C19.7931 58.2408 20.2265 58.6679 20.511 58.6756C22.773 58.7378 25.0369 58.7106 27.2602 58.7106C27.2602 56.3228 27.2602 54.2242 27.2602 51.9393C24.7544 51.9393 22.355 51.9335 19.9556 51.9432C19.4254 51.9452 18.8952 52.0034 18.1716 52.048Z" fill="white"/>
<path d="M35.2092 26.2561C30.0853 26.2755 25.9135 22.125 25.927 17.0194C25.9406 11.9099 30.1105 7.78271 35.2344 7.80601C40.2983 7.82736 44.3656 11.8866 44.4005 16.9534C44.4353 22.1017 40.3524 26.2367 35.2092 26.2561ZM35.2576 9.70459C31.138 9.6813 27.804 12.999 27.8388 17.0912C27.8717 21.1039 31.1786 24.3808 35.1899 24.375C39.1953 24.3691 42.5042 21.0728 42.5235 17.0679C42.5429 13.0475 39.2669 9.72789 35.2576 9.70459Z" fill="white"/>
<path d="M18.1561 69.3218C18.1581 66.1478 20.6349 63.6998 23.816 63.7289C26.8714 63.7561 29.3501 66.2138 29.4004 69.2635C29.4488 72.3288 26.8636 74.9729 23.785 75.0001C20.6968 75.0292 18.1542 72.4628 18.1561 69.3218ZM27.3609 69.2694C27.3358 67.3009 25.7278 65.6857 23.7773 65.6682C21.7978 65.6508 20.064 67.4077 20.0969 69.3955C20.1298 71.3368 21.7649 72.9442 23.7231 72.9578C25.7994 72.9714 27.3899 71.3601 27.3609 69.2694Z" fill="white"/>
<path d="M52.1985 69.3334C52.2005 72.4569 49.6385 75.0291 46.5561 74.9981C43.5239 74.967 41.0336 72.4744 40.9968 69.4304C40.9562 66.2583 43.3982 63.7521 46.5522 63.7269C49.7101 63.7016 52.1966 66.171 52.1985 69.3334ZM46.529 72.9558C48.582 72.983 50.25 71.3407 50.2326 69.3062C50.2171 67.3591 48.5936 65.707 46.6644 65.6721C44.6579 65.6371 42.9473 67.3396 42.9667 69.3547C42.986 71.3504 44.5476 72.9286 46.529 72.9558Z" fill="white"/>
<path d="M24.8318 7.49149C24.7738 10.3471 22.504 12.4903 19.617 12.4127C16.8828 12.3389 14.6769 10.0521 14.706 7.32065C14.735 4.50772 17.0454 2.26746 19.8782 2.30241C22.7285 2.33735 24.8899 4.6009 24.8318 7.49149ZM22.9568 7.40413C22.9723 5.61814 21.5404 4.19323 19.7486 4.21264C18.0206 4.23205 16.6758 5.58319 16.6545 7.32065C16.6332 9.12412 18.0516 10.5451 19.8473 10.5199C21.5404 10.4966 22.9433 9.09306 22.9568 7.40413Z" fill="white"/>
<path d="M16.6351 27.0093C16.6351 24.7962 18.3437 23.1267 20.569 23.1636C22.6549 23.1985 24.3596 24.9301 24.3538 27.0073C24.348 29.1525 22.5272 30.9326 20.3871 30.888C18.2992 30.8433 16.6351 29.1233 16.6351 27.0093ZM20.805 24.7457C20.5206 24.7593 20.2362 24.771 19.9517 24.7845C19.4834 25.5533 18.723 26.2852 18.6146 27.1025C18.456 28.2983 19.4138 28.9991 20.5574 28.9525C21.7106 28.904 22.5872 28.0867 22.353 26.9355C22.1924 26.1337 21.3468 25.4698 20.805 24.7457Z" fill="white"/>
<path d="M55.4338 24.9554C55.4435 26.9025 53.9458 28.4109 52.0166 28.4012C50.1106 28.3895 48.5723 26.8132 48.6149 24.9127C48.6555 23.0976 50.1725 21.5659 51.9682 21.5212C53.8394 21.4785 55.4241 23.0471 55.4338 24.9554ZM51.9856 27.1685C52.7151 26.1609 53.4795 25.5669 53.4369 25.0389C53.3924 24.4914 52.5836 23.6256 52.0785 23.6042C51.5928 23.5829 50.724 24.4177 50.6544 24.9573C50.5847 25.4854 51.3103 26.1182 51.9856 27.1685Z" fill="white"/>
<path d="M46.6606 3.174C46.678 4.9794 45.2674 6.43149 43.4988 6.42955C41.7128 6.42761 40.3196 4.99493 40.3389 3.17788C40.3564 1.45207 41.6973 0.0640432 43.4078 0.00192178C45.1532 -0.0601997 46.6432 1.39189 46.6606 3.174ZM45.3274 3.15264C44.4527 2.59937 43.9148 1.99175 43.4756 2.05581C43.0131 2.12376 42.2933 2.85951 42.3223 3.25553C42.3571 3.70591 43.0731 4.39701 43.5356 4.4339C43.9806 4.46884 44.4798 3.79715 45.3274 3.15264Z" fill="white"/>
<path d="M34.2301 18.0037C32.9413 18.0037 31.8984 18.1124 30.8961 17.959C30.3794 17.8794 29.9344 17.3339 29.4564 16.9981C29.9576 16.6836 30.4297 16.1769 30.9638 16.0992C31.9603 15.9536 32.9917 16.0565 34.232 16.0565C34.232 14.7481 34.1372 13.5989 34.2784 12.4807C34.3345 12.0361 34.9131 11.6595 35.2537 11.2518C35.5342 11.6537 36.0083 12.0361 36.0548 12.4632C36.1709 13.5387 36.0935 14.6355 36.0935 16.0565C37.1945 16.0565 38.2065 15.9478 39.1798 16.0954C39.7816 16.1866 40.3253 16.6661 40.8942 16.9728C40.3021 17.3184 39.7467 17.8386 39.1121 17.9648C38.2413 18.1376 37.3125 18.0075 36.0973 18.0075C36.0973 19.25 36.1863 20.3817 36.0567 21.4883C36.0006 21.962 35.4917 22.3813 35.1879 22.8258C34.8686 22.391 34.3326 21.9853 34.2726 21.5174C34.1352 20.4516 34.2301 19.3548 34.2301 18.0037Z" fill="white"/>
</svg>
