<svg width="58" height="57" viewBox="0 0 58 57" fill="none" xmlns="http://www.w3.org/2000/svg">
<path d="M41.0987 46.9515C41.2663 47.1356 41.4335 47.3192 41.5997 47.5022C41.6873 47.5987 41.787 47.7007 41.8843 47.8001C41.9248 47.8415 41.9648 47.8824 42.0034 47.9224L42.7791 48.7254L43.4922 47.8663C44.2889 46.9063 45.0622 45.9747 45.8349 45.0441C48.8008 45.9378 51.0772 47.3521 52.7303 49.26C54.2552 51.0198 55.2947 53.2515 55.8248 56H55.7708H55.7149H55.659H55.6031H55.5472H55.4913H55.4354H55.3795H55.3236H55.2677H55.2118H55.1559H55.1H55.0442H54.9883H54.9324H54.8765H54.8206H54.7648H54.7089H54.653H54.5413H54.4854H54.4296H54.3737H54.3178H54.262H54.2061H54.1503H54.0944H54.0386H53.9827H53.9269H53.871H53.8152H53.7593H53.7035H53.6477H53.5918H53.536H53.4802H53.4244H53.3685H53.3127H53.2569H53.2011H53.1452H53.0894H53.0336H52.9778H52.922H52.8662H52.8104H52.7546H52.6988H52.643H52.5872H52.5314H52.4756H52.4198H52.364H52.3082H52.2524H52.1966H52.1408H52.085H52.0293H51.9735H51.9177H51.8619H51.8062H51.7504H51.6946H51.6388H51.5831H51.5273H51.4715H51.4158H51.36H51.3043H51.2485H51.1927H51.137H51.0812H51.0255H50.9697H50.914H50.8582H50.8025H50.7467H50.691H50.6353H50.5795H50.5238H50.4681H50.4123H50.3566H50.3009H50.2451H50.1894H50.1337H50.078H50.0222H49.9665H49.9108H49.8551H49.7994H49.7436H49.6879H49.6322H49.5765H49.5208H49.4651H49.4094H49.3537H49.298H49.2423H49.1866H49.1309H49.0752H49.0195H48.9638H48.9081H48.8524H48.7967H48.741H48.6854H48.6297H48.574H48.5183H48.4626H48.4069H48.3513H48.2956H48.2399H48.1842H48.1286H48.0729H48.0172H47.9615H47.9059H47.8502H47.7945H47.7389H47.6832H47.6276H47.5719H47.5162H47.4606H47.4049H47.3493H47.2936H47.238H47.1823H47.1267H47.071H47.0154H46.9597H46.9041H46.8484H46.7928H46.7371H46.6815H46.6259H46.5702H46.5146H46.459H46.4033H46.3477H46.292H46.2364H46.1808H46.1252H46.0695H46.0139H45.9583H45.9027H45.847H45.7914H45.7358H45.6802H45.6245H45.5689H45.5133H45.4577H45.4021H45.3465H45.2908H45.2352H45.1796H45.124H45.0684H45.0128H44.9572H44.9016H44.846H44.7904H44.7348H44.6792H44.6236H44.568H44.5124H44.4568H44.4012H44.3456H44.29H44.2344H44.1788H44.1232H44.0676H44.012H43.9564H43.9008H43.8453H43.7897H43.7341H43.6785H43.6229H43.5673H43.5117H43.4562H43.4006H43.345H43.2894H43.2338H43.1783H43.1227H43.0671H43.0115H42.9559H42.9004H42.8448H42.7892H42.7337H42.6781H42.6225H42.5669H42.5114H42.4558H42.4002H42.3447H42.2891H42.2335H42.178H42.1224H42.0668H42.0113H41.9557H41.9002H41.8446H41.789H41.7335H41.6779H41.6224H41.5668H41.5112H41.4557H41.4001H41.3446H41.289H41.2335H41.1779H41.1224H41.0668H41.0112H40.9557H40.9001H40.8446H40.789H40.7335H40.6779H40.6224H40.5668H40.5113H40.4558H40.4002H40.3447H40.2891H40.2336H40.178H40.1225H40.0669H40.0114H39.9558H39.9003H39.8448H39.7892H39.7337H39.6781H39.6226H39.5671H39.5115H39.456H39.4004H39.3449H39.2894H39.2338H39.1783H39.1228H39.0672H39.0117H38.9561H38.9006H38.8451H38.7895H38.734H38.6785H38.6229H38.5674H38.5119H38.4563H38.4008H38.3453H38.2897H38.2342H38.1787H38.1231H38.0676H37.9565H37.901H37.8455H37.79H37.7344H37.6789H37.6234H37.5678H37.5123H37.4568H37.4012H37.3457H37.2902H37.2347H37.1791H37.1236H37.0681H37.0126H36.957H36.9015H36.846H36.7904H36.7349H36.6794H36.6239H36.5683H36.5128H36.4573H36.4017H36.3462H36.2907H36.2352H36.1796H36.1241H36.0686H36.0131H35.9575H35.902H35.8465H35.7909H35.7354H35.6799H35.6244H35.5688H35.5133H35.4578H35.4023H35.3467H35.2912H35.2357H35.1801H35.1246H35.0691H35.0136H34.958H34.9025H34.847H34.7914H34.7359H34.6804H34.6249H34.5693H34.5138H34.4583H34.4027H34.3472H34.2917H34.2362H34.1806H34.1251H34.0696H34.014H33.9585H33.903H33.8474H33.7919H33.7364H33.6808H33.6253H33.5698H33.5142H33.4587H33.4032H33.3476H33.2921H33.2366H33.181H33.1255H33.07H33.0144H32.9589H32.9034H32.8478H32.7923H32.7367H32.6812H32.6257H32.5701H32.5146H32.4591H32.4035H32.348H32.2924H32.2369H32.1814H32.1258H32.0703H32.0147H31.9592H31.9036H31.8481H31.7926H31.737H31.6815H31.6259H31.5704H31.5148H31.4593H31.4037H31.3482H31.2926H31.2371H31.1815H31.126H31.0704H31.0149H30.9593H30.9038H30.8482H30.7927H30.7371H30.6816H30.626H30.5704H30.5149H30.4593H30.4038H30.3482H30.2927H30.2371H30.1815H30.126H30.0704H30.0149H29.9593H29.9037H29.8482H29.7926H29.737H29.6815H29.6259H29.5978C29.6966 55.2518 29.8762 54.5291 30.1303 53.8217L30.1304 53.8214C31.7552 49.2945 34.8315 46.4157 39.4557 45.1309C39.9991 45.7436 40.5516 46.3505 41.0987 46.9515ZM44.7432 43.2785C42.2208 43.8765 40.0281 43.3658 38.0645 41.7008L38.0644 41.7007C36.8076 40.6353 36.053 39.2705 35.8081 37.6439L35.8081 37.6436C35.2717 34.0867 37.3268 30.8306 40.6521 29.8263L40.6522 29.8263C43.9554 28.8284 47.4816 30.379 49.0182 33.4245C50.4011 36.1657 49.8868 41.0813 45.2981 43.0415L44.7432 43.2785ZM39.3216 44.9807C39.3216 44.9807 39.3222 44.9813 39.3234 44.9824C39.3222 44.9813 39.3216 44.9808 39.3216 44.9807Z" stroke="white" stroke-width="2"/>
<path d="M11.4613 14.4502C11.4171 14.4215 11.3688 14.3936 11.3164 14.3681L11.3157 14.3677C8.63923 13.0683 7.22086 11.0123 7.14636 8.1127L7.14634 8.11203C7.0449 4.26421 9.97945 1.43444 13.3319 1.04654L11.4613 14.4502ZM11.4613 14.4502L11.5286 14.4363L11.6149 14.5282C11.6979 14.5381 11.7898 14.5565 11.8851 14.5889C13.3181 15.0729 14.734 15.1006 16.167 14.6519C16.3105 14.6069 16.4376 14.5978 16.4864 14.5943L16.4877 14.5942L16.6169 14.5303C16.7181 14.4802 16.8112 14.4346 16.8988 14.3917C17.0925 14.2967 17.2595 14.2147 17.429 14.1273L17.43 14.1268C20.0258 12.7916 21.5352 9.7886 21.066 6.92335M11.4613 14.4502L21.066 6.92335M21.066 6.92335C20.4381 3.09706 16.9503 0.628193 13.3319 1.04654L21.066 6.92335ZM1.05079 27.4627C1.48682 23.4904 4.76962 18.145 10.8453 16.6307C11.3894 17.2113 11.9334 17.7935 12.4833 18.3821C12.7944 18.715 13.1073 19.0499 13.4233 19.3878L14.1996 20.2178L14.9241 19.3423L15.1563 19.0616C15.8568 18.2152 16.5398 17.3898 17.2558 16.525C20.2135 17.4217 22.4847 18.8291 24.1357 20.7245C25.6668 22.4823 26.71 24.712 27.2412 27.4627H27.1882H27.1324H27.0765H27.0206H26.9648H26.9089H26.853H26.7972H26.7413H26.6855H26.6296H26.5738H26.5179H26.4621H26.4062H26.3504H26.2946H26.2387H26.1829H26.1271H26.0712H26.0154H25.9596H25.9038H25.8479H25.7921H25.7363H25.6805H25.6247H25.5689H25.5131H25.4573H25.4015H25.3457H25.2899H25.2341H25.1783H25.1225H25.0667H25.0109H24.9551H24.8994H24.8436H24.7878H24.732H24.6763H24.6205H24.5647H24.5089H24.4532H24.3974H24.3417H24.2859H24.2301H24.1744H24.1186H24.0629H24.0071H23.9514H23.8957H23.8399H23.7842H23.7284H23.6727H23.617H23.5612H23.5055H23.4498H23.3941H23.3383H23.2826H23.2269H23.1712H23.1155H23.0598H23.0041H22.9484H22.8926H22.8369H22.7812H22.7255H22.6698H22.6142H22.5585H22.5028H22.4471H22.3914H22.3357H22.28H22.2243H22.1687H22.113H22.0573H22.0016H21.946H21.8903H21.8346H21.779H21.7233H21.6676H21.612H21.5563H21.5007H21.445H21.3893H21.3337H21.278H21.2224H21.1668H21.1111H21.0555H20.9998H20.9442H20.8886H20.8329H20.7773H20.7217H20.666H20.6104H20.5548H20.4992H20.4435H20.3879H20.3323H20.2767H20.2211H20.1655H20.1098H20.0542H19.9986H19.943H19.8874H19.8318H19.7762H19.7206H19.665H19.6094H19.5538H19.4983H19.4427H19.3871H19.3315H19.2759H19.2203H19.1647H19.1092H19.0536H18.998H18.9424H18.8869H18.8313H18.7757H18.7202H18.6646H18.609H18.5535H18.4979H18.4423H18.3868H18.3312H18.2757H18.2201H18.1646H18.109H18.0535H17.9979H17.9424H17.8868H17.8313H17.7758H17.7202H17.6647H17.6091H17.5536H17.4981H17.4425H17.387H17.3315H17.276H17.2204H17.1649H17.1094H17.0539H16.9984H16.9428H16.8873H16.8318H16.7763H16.7208H16.6653H16.6098H16.5543H16.4988H16.4432H16.3877H16.3322H16.2767H16.2212H16.1658H16.1103H16.0548H15.9993H15.9438H15.8883H15.8328H15.7773H15.7218H15.6663H15.6109H15.5554H15.4999H15.4444H15.3889H15.3335H15.278H15.2225H15.1671H15.1116H15.0561H15.0006H14.9452H14.8897H14.8343H14.7788H14.7233H14.6679H14.6124H14.557H14.5015H14.446H14.3906H14.3351H14.2797H14.2242H14.1688H14.1133H14.0579H14.0024H13.947H13.8916H13.8361H13.7807H13.7252H13.6698H13.6144H13.5589H13.5035H13.4481H13.3926H13.3372H13.2818H13.2264H13.1709H13.1155H13.0601H13.0047H12.9492H12.8938H12.8384H12.783H12.7276H12.6721H12.6167H12.5613H12.5059H12.4505H12.3951H12.3397H12.2843H12.2288H12.1734H12.118H12.0626H12.0072H11.9518H11.8964H11.841H11.7856H11.7302H11.6748H11.6194H11.564H11.5086H11.4533H11.3979H11.3425H11.2871H11.2317H11.1763H11.1209H11.0655H11.0102H10.9548H10.8994H10.844H10.7886H10.7332H10.6779H10.6225H10.5671H10.5117H10.4564H10.401H10.3456H10.2902H10.2349H10.1795H10.1241H10.0688H10.0134H9.95802H9.90265H9.84729H9.79192H9.73656H9.6812H9.62583H9.57047H9.51511H9.45975H9.4044H9.34904H9.29368H9.23832H9.18297H9.12761H9.07226H9.01691H8.96156H8.90621H8.85085H8.7955H8.74016H8.68481H8.62946H8.57411H8.51877H8.46342H8.40808H8.35273H8.29739H8.24205H8.18671H8.13137H8.07603H8.02069H7.96535H7.91001H7.85467H7.79934H7.744H7.68867H7.63333H7.578H7.52267H7.46733H7.412H7.35667H7.30134H7.24601H7.19068H7.13535H7.08003H7.0247H6.96937H6.91405H6.85872H6.8034H6.74807H6.69275H6.63742H6.5821H6.52678H6.47146H6.41614H6.36082H6.3055H6.25018H6.19486H6.13954H6.08423H6.02891H5.97359H5.91828H5.86296H5.80765H5.75233H5.69702H5.64171H5.58639H5.53108H5.47577H5.42046H5.36515H5.30984H5.25453H5.19922H5.14391H5.0886H5.03329H4.97799H4.92268H4.86737H4.81207H4.75676H4.70145H4.64615H4.59085H4.53554H4.48024H4.42493H4.36963H4.31433H4.25903H4.20372H4.14842H4.09312H4.03782H3.98252H3.92722H3.87192H3.81662H3.76132H3.70602H3.65073H3.59543H3.54013H3.48483H3.42954H3.37424H3.31894H3.26365H3.20835H3.15306H3.09776H3.04246H2.98717H2.93188H2.87658H2.82129H2.76599H2.7107H2.65541H2.60011H2.54482H2.48953H2.43424H2.37894H2.32365H2.26836H2.21307H2.15778H2.10249H2.0472H1.9919H1.93661H1.88132H1.82603H1.77074H1.71545H1.66016H1.60487H1.54958H1.4943H1.43901H1.38372H1.32843H1.27314H1.21785H1.16256H1.10727H1.05198H1.05079Z" stroke="white" stroke-width="2"/>
<path d="M9.29008 38.5996C8.98514 37.6651 8.88791 36.7465 8.96772 35.834L15.2368 41.6258C15.511 41.7441 15.9591 41.8551 16.4173 41.6067C16.7714 41.4147 16.9457 41.0889 17.0028 40.982C17.0048 40.9783 17.0066 40.9748 17.0083 40.9717L17.0088 40.9708C17.2447 40.5313 17.4822 40.093 17.7252 39.6462C18.3232 40.8016 18.918 41.951 19.513 43.1006C20.09 44.2153 20.6671 45.3303 21.2472 46.4513C19.3141 46.6836 17.3958 46.9141 15.4654 47.1461C14.9228 47.2113 14.3793 47.2766 13.8342 47.3421C13.9881 47.0409 14.1402 46.7448 14.294 46.4487C14.3001 46.437 14.3062 46.4252 14.3125 46.4133C14.3942 46.2563 14.4881 46.0762 14.5511 45.9163C14.6189 45.744 14.7262 45.4191 14.6304 45.0375C14.5343 44.655 14.2855 44.4197 14.1448 44.3007C14.0173 44.1929 13.8539 44.0815 13.7129 43.9853C13.6995 43.9762 13.6863 43.9671 13.6733 43.9583L13.673 43.9581C11.6059 42.5464 10.0324 40.8757 9.29012 38.5998L9.29008 38.5996Z" stroke="white" stroke-width="2"/>
<path d="M40.3802 15.9866L39.5912 15.8123L39.2551 16.5471C39.0158 17.0704 38.7789 17.589 38.5397 18.1125C38.5203 18.1549 38.501 18.1973 38.4816 18.2398C37.2962 16.3069 36.1188 14.3879 34.9281 12.4474C34.7767 12.2006 34.625 11.9534 34.4731 11.7059C36.6617 11.2796 38.8354 10.8566 41.0309 10.4295C41.2903 10.379 41.5499 10.3285 41.8099 10.2779C41.6325 10.6993 41.4564 11.1086 41.2711 11.517C41.189 11.698 40.9925 12.1401 41.1501 12.6391C41.3119 13.1512 41.739 13.3983 41.9433 13.5079L41.9438 13.5082C43.9027 14.5581 45.4972 15.9117 46.5434 17.7816L46.5436 17.7819C47.2098 18.9717 47.5071 20.1783 47.4937 21.4124C47.0488 20.556 46.4631 19.7635 45.7351 19.0389C44.3595 17.6678 42.1523 16.3781 40.3802 15.9866Z" stroke="white" stroke-width="2"/>
</svg>
