<svg width="42" height="61" viewBox="0 0 42 61" fill="none" xmlns="http://www.w3.org/2000/svg">
<path d="M41.9891 33.6046C41.9891 40.8324 41.9963 48.0584 41.9855 55.2861C41.98 59.4046 40.3614 60.9963 36.2089 60.9981C26.0569 61.0017 15.9049 61.0017 5.75293 60.9981C1.60586 60.9963 0.00901825 59.4209 0.00539319 55.2698C-0.00366947 38.6872 -0.00366947 22.1028 0.00539319 5.52023C0.0108308 1.58439 1.59498 0.0216329 5.55718 0.0143979C13.0574 0.00173665 20.5595 -0.0272033 28.0598 0.0578078C29.0603 0.0686603 30.2131 0.491907 31.0215 1.0906C34.2913 3.5089 37.5067 6.0104 40.6152 8.62946C41.3293 9.23178 41.9166 10.4183 41.9311 11.3444C42.0362 18.7621 41.9891 26.1834 41.9891 33.6046ZM28.4767 1.64408C27.6211 1.64408 27.0466 1.64408 26.472 1.64408C19.5499 1.64408 12.6297 1.64046 5.70762 1.64589C2.50669 1.64951 1.67111 2.46706 1.6693 5.61971C1.66386 22.1444 1.66567 38.6691 1.6693 55.1957C1.6693 58.5328 2.552 59.3992 5.93962 59.401C15.9666 59.4046 25.9917 59.4046 36.0186 59.401C39.4298 59.3992 40.3143 58.54 40.3161 55.2174C40.3197 41.2737 40.3197 27.3319 40.3125 13.3883C40.3125 12.7643 40.2472 12.1402 40.2019 11.3426C37.2402 11.3426 34.4091 11.3589 31.5779 11.3372C28.9969 11.3173 28.5002 10.8271 28.4785 8.31293C28.4622 6.19308 28.4767 4.07323 28.4767 1.64408ZM30.2656 9.04728C33.037 9.04728 35.5673 9.04728 38.5815 9.04728C35.6398 6.74475 33.0678 4.73161 30.2656 2.53941C30.2656 4.97579 30.2656 6.94914 30.2656 9.04728Z" fill="white"/>
<path d="M20.6375 38.0578C25.0111 38.1085 28.4876 41.5885 28.4984 45.9277C28.5093 50.3121 24.9114 53.8265 20.4345 53.803C15.9974 53.7795 12.5536 50.2162 12.6261 45.7197C12.695 41.3606 16.2022 38.0072 20.6375 38.0578ZM20.5904 39.6694C17.1266 39.6513 14.2701 42.4006 14.2066 45.8119C14.1432 49.3082 17.0088 52.1661 20.574 52.1624C24.0215 52.1588 26.8563 49.348 26.8672 45.9223C26.878 42.5019 24.0541 39.6875 20.5904 39.6694Z" fill="white"/>
<path d="M20.4091 17.9771C16.0137 17.9771 11.6183 18.0114 7.22294 17.9391C6.59399 17.9282 5.97411 17.4019 5.34879 17.1143C5.92517 16.8575 6.50156 16.3781 7.08157 16.3745C16.001 16.3275 24.9223 16.3275 33.8418 16.3763C34.3964 16.38 34.9456 16.89 35.4985 17.1649C34.9293 17.4344 34.362 17.9318 33.7892 17.9391C29.3304 18.006 24.8698 17.9771 20.4091 17.9771Z" fill="white"/>
<path d="M20.3312 21.8551C15.8705 21.8551 11.4117 21.8858 6.95287 21.8153C6.41274 21.8062 5.87985 21.2491 5.34515 20.9471C5.88529 20.7228 6.42542 20.3068 6.96737 20.3032C15.9521 20.2634 24.9368 20.2634 33.9197 20.3032C34.4526 20.305 34.9819 20.7318 35.5129 20.9615C34.9764 21.26 34.4454 21.808 33.9052 21.8153C29.3793 21.884 24.8552 21.8551 20.3312 21.8551Z" fill="white"/>
<path d="M20.3765 25.7546C15.914 25.7546 11.4516 25.7836 6.98913 25.7167C6.43812 25.7076 5.89617 25.1831 5.34879 24.8973C5.87079 24.6549 6.39099 24.2064 6.91481 24.2027C15.905 24.1593 24.8951 24.1575 33.8835 24.2082C34.4272 24.2118 34.9692 24.7363 35.5129 25.0185C34.9293 25.2645 34.3493 25.7149 33.7638 25.7221C29.3014 25.7818 24.8389 25.7546 20.3765 25.7546Z" fill="white"/>
<path d="M20.4037 33.545C15.9467 33.5468 11.4896 33.5758 7.03262 33.5106C6.47074 33.5034 5.91429 33.0114 5.35422 32.7455C5.93242 32.4833 6.50699 31.9931 7.087 31.9913C15.9974 31.9424 24.9078 31.9406 33.8182 31.9895C34.3765 31.9931 34.9311 32.5104 35.4876 32.7871C34.9166 33.0386 34.3475 33.5016 33.7729 33.5088C29.3195 33.5703 24.8625 33.5432 20.4037 33.545Z" fill="white"/>
<path d="M20.5958 28.0681C24.993 28.0681 29.3884 28.041 33.7838 28.1025C34.362 28.1115 34.9329 28.5782 35.5075 28.8332C34.9529 29.1045 34.4018 29.611 33.8454 29.6146C24.9223 29.6634 16.001 29.6634 7.07792 29.6164C6.49972 29.6128 5.92334 29.1461 5.34695 28.8947C5.96684 28.6198 6.5831 28.1152 7.20843 28.1043C11.6709 28.0356 16.1351 28.0681 20.5958 28.0681Z" fill="white"/>
<path d="M18.7126 46.8592C19.3742 47.277 20.0339 47.6948 20.6955 48.1126C20.8115 48.0258 20.9275 47.939 21.0435 47.8522C20.6574 47.3728 20.3529 46.7741 19.869 46.4377C17.6867 44.9184 17.6287 44.0411 19.6388 42.2631C19.9342 42.0027 20.0665 41.5577 20.3366 41.0911C21.2683 42.0804 22.1038 42.9667 22.9376 43.853C22.7998 44.0773 22.6621 44.3034 22.5243 44.5277C21.7685 44.2889 21.0127 44.0502 19.637 43.6161C20.3892 44.3758 20.7626 44.9129 21.2737 45.2403C23.3635 46.5824 23.4034 47.9408 21.3897 49.4493C21.0199 49.726 20.8061 50.2072 20.4127 50.7371C19.6062 49.6121 18.8485 48.5558 18.0909 47.5013C18.2975 47.2878 18.506 47.0726 18.7126 46.8592Z" fill="white"/>
</svg>
