<svg width="54" height="59" viewBox="0 0 54 59" fill="none" xmlns="http://www.w3.org/2000/svg">
<path d="M30.2388 18.7123C30.5675 15.4726 30.8963 12.233 31.2538 8.70485C23.149 7.82239 15.1337 6.95005 6.77773 6.0406C5.22827 20.3962 3.6923 34.6438 2.12767 49.1428C10.2779 50.0303 18.3 50.9027 26.3424 51.7784C26.7453 50.6006 27.0825 49.5191 27.5158 48.4763C27.5647 48.3565 28.1498 48.4594 28.7315 48.4594C28.4128 51.2351 28.2307 53.9229 27.7603 56.5585C27.4416 58.3487 26.0085 59.1536 24.2534 58.9747C17.3238 58.2661 10.3959 57.5186 3.47818 56.7053C0.660831 56.3746 -0.244564 55.1952 0.0572341 52.3824C1.54262 38.5094 3.0651 24.6414 4.57241 10.7718C4.85735 8.1531 5.10519 5.53103 5.42385 2.91739C5.67001 0.884192 6.90249 -0.173749 8.92235 0.0236659C16.1402 0.727272 23.3547 1.46462 30.5574 2.29478C32.4626 2.51413 33.486 4.00908 33.3006 5.99166C32.9398 9.81847 32.525 13.6419 32.031 17.4518C31.9551 18.0373 31.3397 18.5536 30.9739 19.1037C30.7277 18.9721 30.4832 18.8422 30.2388 18.7123ZM14.2654 56.4657C15.2062 55.4803 16.1824 54.9353 16.2161 54.3363C16.3156 52.59 14.783 52.5663 13.6399 52.7098C12.925 52.7992 12.2944 53.5686 11.6267 54.0326C12.3956 54.7413 13.1644 55.45 14.2654 56.4657ZM14.8437 3.05238C14.7998 3.38647 14.756 3.72055 14.7122 4.05464C17.774 4.36004 20.8358 4.66375 23.8976 4.96916C23.9263 4.65532 23.955 4.34317 23.9819 4.02933C20.9353 3.70368 17.8886 3.37803 14.8437 3.05238Z" fill="white"/>
<path d="M51.6023 24.1437C52.4167 30.7697 53.1872 37.0499 53.9999 43.6675C40.4543 45.3362 27.015 46.9898 13.2706 48.6822C12.463 42.2046 11.6655 35.808 10.8359 29.1516C24.4084 27.4845 37.9169 25.8259 51.6023 24.1437ZM46.0435 26.6291C36.821 27.736 27.0117 28.9036 17.2091 30.1184C16.7455 30.1758 16.2194 30.5436 15.9176 30.9216C15.1134 31.9306 14.4154 33.024 13.3565 34.5392C13.6836 37.1174 14.0933 40.3587 14.4171 42.9099C16.0272 44.1349 17.172 45.0072 18.7417 46.2018C27.9794 45.0848 37.8629 43.9003 47.7397 42.6635C48.1797 42.6079 48.6501 42.1624 48.9553 41.7777C49.7174 40.8159 50.3918 39.7867 51.454 38.285C51.341 37.4059 51.1286 35.7861 50.9246 34.1646C50.7138 32.4891 50.5115 30.8119 50.3968 29.8822C48.7884 28.6792 47.684 27.8541 46.0435 26.6291Z" fill="white"/>
<path d="M44.9862 20.9242C43.258 20.2105 41.9429 19.6672 40.1321 18.9214C30.569 21.6869 21.1256 27.1285 10.5002 28.7432C9.44983 33.7275 11.8659 38.3845 11.6299 43.384C9.90843 38.8215 8.18868 34.259 6.39307 29.5008C19.1816 24.7291 31.8605 19.9962 44.8412 15.152C45.9388 18.0271 47.0111 20.8399 48.0901 23.6661C46.4867 24.0879 46.4867 24.0879 44.9862 20.9242Z" fill="white"/>
<path d="M33.2381 25.6893C29.7902 26.1331 26.6778 26.533 23.417 26.9514C25.7336 23.6004 29.485 23.0757 33.2381 25.6893Z" fill="white"/>
<path d="M39.6179 36.4476C39.6702 40.568 36.4161 44.0641 32.5417 44.0506C28.5896 44.0371 25.2682 40.5477 25.2226 36.3615C25.1771 32.2647 28.48 28.7096 32.3022 28.745C36.2425 28.7804 39.5639 32.2782 39.6179 36.4476ZM29.5608 40.5477C30.7427 40.7704 31.8706 41.3559 32.599 41.0353C33.8466 40.4853 35.2224 39.5775 35.8463 38.4369C36.546 37.1579 35.1179 36.4678 34.0237 36.1405C32.4928 35.6815 32.3933 34.708 32.7103 33.132C33.4757 33.6584 34.0355 34.0448 34.7959 34.5662C34.8633 33.8137 34.9088 33.3058 34.9527 32.8131C33.1941 32.4807 31.675 32.0606 30.1779 33.3176C28.6335 34.6152 28.539 36.0106 30.4206 36.6619C32.2517 37.2963 32.2601 38.447 32.0696 40.2322C31.2468 39.7513 30.5994 39.3717 29.7816 38.8925C29.6957 39.5387 29.6333 40.0061 29.5608 40.5477Z" fill="white"/>
<path d="M22.4256 37.8092C21.3431 38.5482 20.6822 39.3531 20.0971 39.3024C19.4919 39.2501 18.9574 38.366 18.3926 37.8463C18.9726 37.2642 19.4868 36.3429 20.1545 36.213C20.6637 36.1134 21.3667 37.0195 22.4256 37.8092Z" fill="white"/>
<path d="M44.73 37.1562C43.9612 35.9936 43.1755 35.3288 43.2379 34.7535C43.3002 34.1578 44.1854 33.65 44.7114 33.1033C45.2392 33.6483 46.121 34.1528 46.1918 34.7518C46.2592 35.3238 45.4803 35.9953 44.73 37.1562Z" fill="white"/>
</svg>
