<svg width="70" height="59" viewBox="0 0 70 59" fill="none" xmlns="http://www.w3.org/2000/svg">
<path d="M58.769 39.7696L58.7791 39.7719C58.8528 39.7887 58.8853 39.7834 58.8925 39.7815C58.8968 39.7784 58.907 39.769 58.9228 39.7458C58.9539 39.6997 58.9907 39.6217 59.0299 39.4956C59.0686 39.3715 59.1025 39.2253 59.1394 39.0522C59.2949 38.3119 59.4502 37.5715 59.6055 36.8309C60.8319 30.9848 62.0591 25.1347 63.3673 19.3028L63.3673 19.3026C63.4743 18.8261 63.4373 18.5563 63.3491 18.3664C63.2555 18.1651 63.0664 17.969 62.6926 17.7143C58.2537 14.6931 53.826 11.6527 49.4197 8.5817C49.2486 8.46269 49.126 8.39243 49.0348 8.35521C48.9646 8.32658 48.9334 8.32598 48.9266 8.32639C48.9173 8.32982 48.8131 8.37477 48.6104 8.74654L48.6102 8.74696C46.7662 12.1213 45.0453 15.5447 43.5547 19.0767L43.5546 19.0769C43.3918 19.462 43.3034 19.7456 43.2729 19.955C43.243 20.1607 43.2762 20.2438 43.2972 20.2781C43.3187 20.313 43.3794 20.3817 43.5794 20.4508C43.7823 20.5209 44.0779 20.5738 44.4978 20.6081L44.4979 20.6081C46.4349 20.7667 48.3764 20.8765 50.3252 20.9807C51.0692 21.0205 51.7015 21.264 51.8983 21.8949C51.9855 22.1745 51.9577 22.4611 51.8914 22.7134C51.8245 22.9682 51.7082 23.226 51.5734 23.4722L51.5732 23.4727C51.1948 24.1621 50.5662 24.6333 49.7459 24.7982M58.769 39.7696L49.6473 24.308M58.769 39.7696L58.7588 39.7677C57.5313 39.5404 56.324 39.3174 55.1308 39.0971C52.2636 38.5675 49.4785 38.0531 46.6937 37.5307L46.6935 37.5307C45.1129 37.2346 43.5317 36.9348 41.9499 36.6349C38.8562 36.0483 35.76 35.4612 32.6607 34.9005L32.6605 34.9005C32.0163 34.7842 31.4783 34.573 30.9735 34.2187L30.9734 34.2187C29.3914 33.1086 27.8096 31.9978 26.2277 30.8868C20.7574 27.0451 15.2854 23.2021 9.79364 19.3882L9.79337 19.388C9.33918 19.073 9.25449 18.9007 9.24021 18.8096C9.22455 18.7096 9.26 18.5096 9.5809 18.0511C13.4764 12.4883 17.3223 6.88978 21.1403 1.27457L21.1404 1.27429C21.3974 0.895867 21.6218 0.692963 21.8444 0.591646C22.0579 0.494459 22.3333 0.46212 22.7534 0.556092L22.7538 0.556191C28.293 1.78995 33.8362 3.01558 39.3931 4.17761L39.3933 4.17765C39.6462 4.23043 39.8138 4.28032 39.9246 4.33085C39.9775 4.355 40.0082 4.37523 40.0251 4.38887C40.0333 4.39544 40.0379 4.40021 40.0403 4.40292C40.0426 4.40552 40.0435 4.40693 40.0437 4.40736C40.044 4.40778 40.0446 4.40883 40.0454 4.41127C40.0463 4.41383 40.0479 4.41914 40.0494 4.42818C40.0524 4.44689 40.0548 4.4812 40.0488 4.5374C40.0362 4.6553 39.9923 4.82657 39.899 5.07843L39.8989 5.0787C39.0371 7.41018 38.2207 9.76895 37.4062 12.122C36.8657 13.6837 36.326 15.2429 35.7745 16.7899L35.7745 16.79C35.6158 17.2356 35.4824 17.5349 35.361 17.724C35.2647 17.8741 35.2073 17.9062 35.1948 17.9115M58.769 39.7696L35.1938 17.9119M49.7459 24.7982L49.6473 24.308M49.7459 24.7982C49.7459 24.7982 49.7459 24.7982 49.7459 24.7982L49.6473 24.308M49.7459 24.7982C45.099 25.7325 40.5687 27.0401 36.1931 28.8617L36.1931 28.8617C35.7235 29.0571 35.1923 29.1594 34.6899 29.0274C34.16 28.8881 33.7441 28.5095 33.5019 27.9136M49.6473 24.308C44.9736 25.2477 40.4113 26.564 36.001 28.4001C35.1762 28.7432 34.3471 28.6651 33.9651 27.7253M33.5019 27.9136C33.5019 27.9136 33.5019 27.9136 33.5019 27.9137L33.9651 27.7253M33.5019 27.9136L33.9651 27.7253M33.5019 27.9136C31.8791 23.9237 30.1835 19.9796 28.2379 16.1504L28.6519 15.9401L28.2379 16.1504C28.0127 15.7071 27.9543 15.2301 28.0939 14.7795C28.2326 14.3322 28.5497 13.9641 28.9784 13.6999L28.9784 13.6998C29.3976 13.4416 29.8342 13.3591 30.2616 13.4569C30.6729 13.5511 31.0185 13.7992 31.3013 14.0931L31.3014 14.0932C31.7331 14.5422 32.1534 14.9873 32.572 15.4305C33.0962 15.9855 33.6178 16.5378 34.1559 17.0916L34.1559 17.0916C34.4908 17.4364 34.743 17.6624 34.9396 17.7935C35.111 17.9078 35.1834 17.9117 35.1948 17.9115M33.9651 27.7253C32.3401 23.7302 30.6385 19.7713 28.6837 15.9239C28.3349 15.2376 28.5476 14.5527 29.2407 14.1255L35.1922 17.9124C35.1922 17.9124 35.1928 17.9122 35.1938 17.9119M35.1948 17.9115C35.1945 17.9117 35.1941 17.9118 35.1938 17.9119M35.1948 17.9115C35.1959 17.9115 35.1965 17.9114 35.1965 17.9114C35.1965 17.9114 35.1961 17.9115 35.1952 17.9116C35.1947 17.9117 35.1942 17.9118 35.1938 17.9119" stroke="white"/>
<path d="M7.03303 22.2571L7.03321 22.2568C7.4284 21.7696 7.70245 21.5717 7.93968 21.5222C8.15346 21.4776 8.47521 21.5287 9.03838 21.9369C13.7022 25.3186 18.4022 28.6512 23.1 31.9823C25.0086 33.3356 26.9168 34.6887 28.822 36.0446L28.8222 36.0448C28.9277 36.1197 29.0529 36.1868 29.143 36.2351C29.1602 36.2442 29.176 36.2527 29.1903 36.2605C29.2833 36.3111 29.3367 36.3447 29.369 36.3707C29.3644 36.3844 29.3572 36.403 29.3457 36.4269C29.2412 36.5084 29.1374 36.5899 29.034 36.6711C28.998 36.6818 28.9625 36.691 28.9216 36.7016C28.8701 36.7149 28.8102 36.7305 28.7299 36.754C28.5792 36.7981 28.3707 36.8689 28.1882 37.0155L28.1867 37.0167C27.7433 37.3757 27.2994 37.7345 26.8551 38.0935C24.674 39.8561 22.4874 41.6232 20.3442 43.44C20.3442 43.44 20.3441 43.44 20.3441 43.44L20.3009 43.4766C19.7048 43.982 19.2893 44.334 18.9497 44.5655C18.6054 44.8003 18.41 44.8596 18.2579 44.8589C18.1008 44.8581 17.8932 44.7931 17.5247 44.5543C17.1928 44.3393 16.7914 44.0258 16.2368 43.5925C16.1744 43.5437 16.1101 43.4935 16.0438 43.4417C15.1668 42.757 14.2984 42.0346 13.4231 41.3066C11.6239 39.8101 9.7956 38.2894 7.80497 37.0213C6.38145 35.5755 4.81511 34.3065 3.10234 33.2175C2.11305 31.6265 1.66513 29.861 1.53189 27.9696C3.49028 26.1986 5.35703 24.3212 7.03303 22.2571ZM28.7827 37.1157H29.2253L29.2362 37.1315C29.1659 37.1544 29.0928 37.1737 29.0198 37.193C28.9464 37.2124 28.873 37.2318 28.8025 37.2548C28.7886 37.2066 28.7827 37.1592 28.7827 37.1157Z" stroke="white"/>
<path d="M58.7872 43.8457C59.1558 45.2631 59.6703 46.6579 60.1748 48.0253C60.3512 48.5034 60.5264 48.9781 60.6936 49.4494C59.5699 50.6534 58.4185 51.6126 56.8532 51.8819C56.6052 51.8369 56.356 51.7907 56.1057 51.7442C54.2617 51.4017 52.3527 51.0471 50.3935 51.1307C50.368 51.1174 50.3427 51.1037 50.3149 51.0886C50.2687 51.0635 50.2158 51.0348 50.1447 50.9987C50.008 50.9292 49.8237 50.845 49.6104 50.8141L49.6102 50.8141C49.1539 50.7483 48.6977 50.6825 48.2413 50.6166C43.8075 49.9767 39.3701 49.3362 34.9243 48.7541L34.9239 48.7541C34.545 48.7047 34.3308 48.627 34.2012 48.5284C34.0927 48.4458 33.9922 48.3093 33.9421 48.0011C33.3812 44.5515 32.8216 41.1018 32.2621 37.6521C33.9031 37.7893 35.526 38.0752 37.1579 38.4051C37.752 38.5252 38.3498 38.6517 38.9503 38.7787C40.1957 39.0422 41.4523 39.3081 42.7098 39.524L42.7945 39.0313L42.7099 39.524C45.0417 39.9251 47.3681 40.3603 49.6982 40.7976L50.0067 40.8555C52.2332 41.2735 54.4634 41.6922 56.6993 42.0824L56.6994 42.0825C57.3213 42.1909 57.7549 42.3495 58.071 42.6006C58.3767 42.8434 58.6226 43.2131 58.7872 43.8457ZM58.7872 43.8457L59.2712 43.7199L58.7873 43.8459C58.7873 43.8458 58.7873 43.8458 58.7872 43.8457Z" stroke="white"/>
<path d="M24.5399 55.6282C24.3844 55.569 24.229 55.5087 24.0736 55.4475C24.1359 55.2929 24.1982 55.1384 24.2606 54.9838C24.4159 55.045 24.5713 55.1052 24.7268 55.1644C24.6645 55.319 24.6022 55.4736 24.5399 55.6282ZM31.2516 37.667C31.303 37.984 31.3544 38.301 31.4059 38.6181C31.5153 38.3478 31.6248 38.0775 31.7342 37.8073L31.7343 37.8073L31.7354 37.8045C31.7391 37.7951 31.7483 37.7778 31.7712 37.7475C31.7368 37.5352 31.7023 37.3229 31.6679 37.1105L31.6673 37.1069C31.6248 37.1605 31.5772 37.2121 31.5296 37.2638C31.4265 37.3757 31.3233 37.4878 31.2708 37.6195C31.2644 37.6354 31.258 37.6512 31.2516 37.667ZM45.4275 56.6817C45.3923 56.7239 45.3571 56.7661 45.3218 56.8084L45.7058 57.1287L45.5866 56.6431C45.5336 56.6561 45.4805 56.669 45.4275 56.6817ZM49.7848 51.9387C49.8369 51.9666 49.8983 51.9996 49.9596 52.0307C50.0697 51.8988 50.1797 51.7668 50.2898 51.6349C50.2091 51.5989 50.1294 51.556 50.0497 51.5132C49.9777 51.4744 49.9057 51.4356 49.8329 51.402C49.7199 51.5375 49.607 51.6728 49.4944 51.8078C49.5389 51.8186 49.5994 51.8423 49.691 51.889C49.7153 51.9014 49.7477 51.9188 49.7848 51.9387ZM49.4673 51.8025C49.4673 51.8025 49.4674 51.8025 49.4675 51.8025L49.5388 51.3076L49.4673 51.8025ZM34.7944 49.7443C34.7945 49.7443 34.7946 49.7444 34.7948 49.7444L34.8593 49.2486L34.7944 49.7443Z" stroke="white"/>
<path d="M8.24175 42.996C11.9772 47.8384 16.5717 51.5601 22.0999 54.0956C22.3286 53.538 22.5573 52.9804 22.7861 52.4228C24.7796 47.5629 26.7732 42.7031 28.7603 37.8411C28.3453 38.1771 27.9303 38.5125 27.5155 38.8478C25.3243 40.6188 23.1385 42.3855 20.9936 44.2027C20.9674 44.2249 20.9415 44.2468 20.9159 44.2686C20.3526 44.7461 19.9003 45.1295 19.5156 45.3917C19.11 45.6681 18.7089 45.8608 18.2555 45.8587C17.8071 45.8565 17.4004 45.6637 16.9832 45.3934C16.6112 45.1523 16.1711 44.8082 15.6294 44.3846C15.5649 44.3341 15.4989 44.2825 15.4314 44.2298L15.4313 44.2298C14.5015 43.5038 13.607 42.7593 12.7195 42.0207C11.1481 40.7131 9.59877 39.4237 7.91457 38.287C7.82464 39.2878 7.7354 40.2894 7.64614 41.2912C7.62402 41.9207 7.81809 42.4468 8.24175 42.996ZM8.24175 42.996L7.84599 43.3013L8.24175 42.996Z" stroke="white"/>
<path d="M65.4584 21.2189L65.4584 21.2188C65.4885 21.077 65.4962 20.9248 65.5018 20.8149C65.502 20.8111 65.5022 20.8074 65.5024 20.8037C65.5089 20.6759 65.5139 20.5869 65.5278 20.5107C65.5352 20.4698 65.543 20.4464 65.5479 20.4345C65.551 20.4337 65.5548 20.4328 65.5595 20.4318C65.5596 20.4318 65.5596 20.4318 65.5597 20.4318L65.5597 20.4317C65.5598 20.4317 65.5599 20.4316 65.56 20.4315C65.5637 20.4287 65.5867 20.4115 65.6872 20.518C65.7436 20.5777 65.8002 20.6522 65.8741 20.7516C65.8787 20.7579 65.8835 20.7643 65.8883 20.7709C65.9529 20.858 66.0343 20.9679 66.1225 21.0643L66.1226 21.0645C66.2994 21.2577 66.4553 21.4663 66.6276 21.6967C66.68 21.7669 66.734 21.8391 66.7905 21.9135C67.0212 22.2171 67.2874 22.5464 67.6224 22.8152C69.4651 24.296 69.6558 26.2194 69.3978 28.564L69.3978 28.5642C69.0735 31.5217 68.8059 34.4877 68.539 37.4479C68.4266 38.694 68.3143 39.939 68.1979 41.1819C67.931 42.2728 67.3141 43.1287 66.4371 43.844C66.076 43.6723 65.7143 43.4992 65.3519 43.3257C64.2592 42.8027 63.1602 42.2766 62.0524 41.7772C61.6479 41.5946 61.4776 41.469 61.3971 41.3412C61.3315 41.2371 61.2706 41.0383 61.3785 40.5496C62.2736 36.4998 63.1178 32.4351 63.9613 28.3741C64.4572 25.9865 64.9529 23.6002 65.4584 21.2189Z" stroke="white"/>
<path d="M11.5782 5.04775C13.3745 2.98834 15.6354 2.00226 18.0635 1.00737C17.6139 1.66831 17.1643 2.32926 16.7148 2.9902C13.4033 7.85861 10.092 12.7268 6.77582 17.5912C6.52113 17.9648 6.24594 18.1816 5.89332 18.22L5.89294 18.2201C4.40705 18.383 2.92128 18.5434 1.43505 18.704C1.12792 18.7371 0.820761 18.7703 0.513584 18.8035C0.571108 18.0698 0.806949 17.3629 1.13694 16.6455C4.01951 13.8442 6.63838 10.7912 9.23751 7.7613C10.0173 6.85224 10.7953 5.94525 11.5782 5.04775L11.2014 4.71909L11.5782 5.04775Z" stroke="white"/>
</svg>
