<svg width="34" height="50" viewBox="0 0 34 50" fill="none" xmlns="http://www.w3.org/2000/svg">
<path d="M13.7331 47.3223C12.8553 48.1201 12.0313 48.838 11.2442 49.5935C10.7138 50.1028 10.2587 50.0968 9.72833 49.589C8.94121 48.8349 8.11565 48.1186 7.2409 47.3283C6.39997 48.0809 5.57749 48.8198 4.75039 49.5542C4.08165 50.1496 3.86334 50.1481 3.19921 49.5512C2.34752 48.7881 1.51735 48.0008 0.642601 47.2633C0.175247 46.8674 -0.00462292 46.4307 -0.00154822 45.8232C0.0199747 41.2171 0.0107506 36.6111 0.0107506 32.0066C0.0107506 21.9407 0.0107506 11.8748 0.0107506 1.81041C0.0107506 0.0151426 0.0107507 0.0151427 1.80945 0.0151427C9.46852 0.0151427 17.1291 0.0242097 24.7882 3.10156e-05C25.5661 -0.00299132 26.1241 0.214617 26.6714 0.764682C28.8914 2.99668 31.1467 5.19543 33.4127 7.38209C33.8339 7.78859 33.9908 8.21021 33.9892 8.77992C33.9738 14.6976 33.98 20.6154 33.98 26.5331C33.98 32.8679 33.9631 39.2043 34 45.5391C34.0046 46.3778 33.7571 46.9596 33.1083 47.4824C32.2582 48.167 31.468 48.9256 30.6609 49.6615C30.2366 50.0484 29.8814 50.1088 29.4156 49.6646C28.5762 48.8652 27.6738 48.1277 26.756 47.3283C25.9535 48.0552 25.1864 48.7563 24.4115 49.4485C23.6798 50.1028 23.4077 50.0862 22.6666 49.4318C21.8857 48.7443 21.0863 48.0778 20.2315 47.3464C19.4905 48.0113 18.7387 48.6808 17.9916 49.3563C17.143 50.124 16.9293 50.1194 16.0791 49.3623C15.3227 48.6914 14.5541 48.0355 13.7331 47.3223ZM10.4878 48.3332C11.3702 47.5399 12.225 46.7873 13.0598 46.0136C13.5133 45.5935 13.936 45.5496 14.3957 45.9894C15.0721 46.6377 15.7716 47.2648 16.4342 47.9267C16.8078 48.3015 17.0999 48.3801 17.5104 47.9569C18.1453 47.3026 18.8433 46.7087 19.4966 46.0695C20.0209 45.5572 20.4836 45.5738 21.0125 46.0816C21.8134 46.8493 22.6543 47.5761 23.5014 48.3408C24.3731 47.5565 25.2017 46.8447 25.9873 46.0922C26.5085 45.5935 26.9451 45.5376 27.4924 46.065C28.2933 46.8357 29.1466 47.555 30.0167 48.3302C30.6885 47.7257 31.305 47.1228 31.9768 46.5878C32.4227 46.2327 32.5518 45.8368 32.5503 45.2867C32.5318 39.0985 32.5395 32.9087 32.541 26.719C32.541 21.105 32.541 15.491 32.541 9.87702C32.541 9.58688 32.541 9.29825 32.541 8.96579C30.3226 8.96579 28.2257 8.96277 26.1303 8.9673C25.1556 8.97032 24.8604 8.69076 24.8589 7.71908C24.8558 6.5857 24.8574 5.45384 24.8574 4.32046C24.8574 3.37296 24.8574 2.42546 24.8574 1.46889C17.0077 1.46889 9.26251 1.46889 1.45586 1.46889C1.45586 1.81645 1.45586 2.11264 1.45586 2.41034C1.45586 12.2012 1.45432 21.9921 1.45432 31.7844C1.45432 36.3149 1.45278 40.8454 1.46508 45.3759C1.46662 45.66 1.4866 46.0347 1.66186 46.21C2.39057 46.9445 3.18076 47.6184 3.97403 48.3378C4.85955 47.5444 5.70816 46.819 6.51527 46.0514C7.03028 45.5617 7.46689 45.5889 7.96806 46.0574C8.78132 46.819 9.62071 47.5535 10.4878 48.3332ZM26.3609 2.66875C26.3609 4.25699 26.3609 5.86941 26.3609 7.51507C28.0504 7.51507 29.6677 7.51507 31.2389 7.51507C29.597 5.88301 27.9782 4.27361 26.3609 2.66875Z" fill="white"/>
<path d="M16.9539 26.7115C13.3703 26.7115 9.78828 26.7115 6.20472 26.7115C5.89725 26.7115 5.55596 26.784 5.29307 26.6767C5.0348 26.5709 4.66891 26.2566 4.6889 26.0692C4.71657 25.8063 5.02558 25.5343 5.2777 25.3454C5.40991 25.2471 5.67434 25.3136 5.8788 25.3136C13.3257 25.3121 20.7742 25.3121 28.2211 25.3136C28.4256 25.3136 28.6961 25.2532 28.8191 25.3559C29.0436 25.5433 29.3034 25.8289 29.3126 26.0813C29.3203 26.2777 28.9975 26.5331 28.7653 26.6737C28.6162 26.7659 28.3671 26.7054 28.1627 26.7054C24.4269 26.7069 20.6896 26.7054 16.9539 26.7054C16.9539 26.7084 16.9539 26.7099 16.9539 26.7115Z" fill="white"/>
<path d="M17.0031 22.9441C13.2673 22.9441 9.53156 22.9441 5.79581 22.9426C5.59134 22.9426 5.33768 22.9955 5.19624 22.8973C4.97332 22.7447 4.69199 22.4893 4.68584 22.2717C4.67969 22.0465 4.93182 21.7564 5.14858 21.6022C5.30539 21.4904 5.59134 21.5418 5.8204 21.5418C13.2658 21.5403 20.7112 21.5403 28.1565 21.5418C28.361 21.5418 28.6223 21.4783 28.7576 21.5765C28.9944 21.7488 29.3034 22.0254 29.3019 22.2566C29.3003 22.4787 28.979 22.7537 28.7346 22.9033C28.5655 23.0076 28.2857 22.9441 28.0566 22.9441C24.3716 22.9457 20.6881 22.9457 17.0031 22.9457V22.9441Z" fill="white"/>
<path d="M11.7915 14.075C13.7885 14.075 15.787 14.0765 17.784 14.075C18.2929 14.075 18.8325 14.0826 18.8371 14.758C18.8402 15.4078 18.3359 15.4804 17.8086 15.4804C13.7623 15.4774 9.71604 15.4774 5.66974 15.4819C5.1332 15.4819 4.64894 15.3927 4.65509 14.7444C4.66124 14.1218 5.15473 14.0735 5.64514 14.0735C7.69442 14.075 9.74371 14.075 11.7915 14.075Z" fill="white"/>
<path d="M11.77 19.1813C9.82368 19.1813 7.87739 19.1828 5.93111 19.1798C5.67591 19.1798 5.38535 19.2237 5.17627 19.1209C4.95951 19.0136 4.68432 18.7522 4.68586 18.5587C4.6874 18.32 4.90877 18.0419 5.11017 17.8621C5.23315 17.7518 5.49758 17.7729 5.69897 17.7729C9.71914 17.7684 13.7393 17.7699 17.761 17.7699C17.8379 17.7699 17.9147 17.7669 17.9916 17.7714C18.4789 17.7971 18.8694 17.9618 18.8433 18.5194C18.8202 19.0257 18.4651 19.1813 17.9931 19.1783C16.8924 19.1738 15.7917 19.1798 14.6894 19.1813C13.7162 19.1813 12.7431 19.1813 11.77 19.1813Z" fill="white"/>
</svg>
