<svg xmlns="http://www.w3.org/2000/svg" xmlns:xlink="http://www.w3.org/1999/xlink" width="182.075" height="36.441" viewBox="0 0 182.075 36.441">
  <defs>
    <clipPath id="clip-path">
      <rect id="Rectangle_1" data-name="Rectangle 1" width="182.075" height="36.441" transform="translate(38 110)" fill="none"/>
    </clipPath>
    <clipPath id="clip-path-2">
      <path id="path20" d="M0-340.159H202.426v90.375H0Z" transform="translate(0 340.159)"/>
    </clipPath>
  </defs>
  <g id="Scroll_Group_1" data-name="Scroll Group 1" transform="translate(-38 -110)" clip-path="url(#clip-path)">
    <g id="g8" transform="translate(27.824 80.775)">
      <path id="path10" d="M299.638-137.971h-112.4v-1.24h112.4Z" transform="translate(-137.094 192.6)" fill="#55c5d0"/>
      <path id="path12" d="M402.392-137.971H327.569v-1.24h74.823Z" transform="translate(-239.848 192.6)" fill="#faa619"/>
      <path id="path14" d="M504.725-137.971h-37.4v-1.24h37.4Z" transform="translate(-342.181 192.6)" fill="#80c341"/>
      <g id="g16">
        <g id="g18" clip-path="url(#clip-path-2)">
          <g id="g24" transform="translate(11.329 30.012)">
            <path id="path26" d="M-70.642-45.758c-4.358,0-5.013-3.523-5.013-7.046s.655-7.053,5.013-7.053,4.967,3.517,4.967,7.053-.624,7.046-4.967,7.046m5.006-14.1a6.511,6.511,0,0,0-5.637-2.456,7.277,7.277,0,0,0-4.88,1.651c-1.989,1.879-2.424,4.788-2.424,7.857s.435,5.978,2.424,7.843A7.17,7.17,0,0,0-71.3-43.273a6.627,6.627,0,0,0,5.624-2.455v2.952c0,3.222-1.634,5.788-5.5,5.788a6.409,6.409,0,0,1-4.811-1.879L-77.9-37.1a9.143,9.143,0,0,0,6.805,2.529c5.257,0,8.355-3.412,8.355-8.077V-62.08h-2.9ZM-83.518-49.9a4.2,4.2,0,0,1-1.022,3.253c-1.262,1.154-2.766,1.266-4.476,1.266-3.2,0-4.606-1.039-4.606-3.223s1.462-3.328,4.465-3.328h5.639Zm-5.093-12.417c-3.263,0-5.287.614-7.091,2.8l1.992,1.733c1.19-1.578,2.5-2.154,5.068-2.154,3.655,0,5.123,1.379,5.123,4.141v1.788h-6.032c-4.478,0-6.927,2.152-6.927,5.451a5.233,5.233,0,0,0,1.511,3.831c1.258,1.227,2.9,1.731,5.663,1.731,2.678,0,4.151-.5,5.784-2.038v1.807h2.935v-12.8c0-4.1-2.651-6.285-8.027-6.285m72.55,8.47-3.209-.269c-2.531-.19-3.508-1.155-3.508-2.763,0-1.909,1.551-3.1,4.477-3.1a8.985,8.985,0,0,1,5.34,1.491l1.913-1.792a11.854,11.854,0,0,0-7.214-2.038c-4.277,0-7.384,2.075-7.384,5.519,0,3.107,2.091,4.758,6,5.058l3.3.269c2.335.185,3.33,1.11,3.33,2.756,0,2.217-2.033,3.334-5.326,3.334a8.476,8.476,0,0,1-6.23-2.179l-1.958,1.828c2.2,2,4.838,2.733,8.228,2.733,4.855,0,8.146-2.113,8.146-5.752,0-3.53-2.41-4.788-5.906-5.1" transform="translate(96.478 62.314)" fill="#f15a2a"/>
          </g>
          <g id="g28" transform="translate(47.211 29.997)">
            <path id="path30" d="M-82.024-34.363a5.641,5.641,0,0,1-.46,2.51,3.512,3.512,0,0,1-1.779,1.528,7.171,7.171,0,0,1-2.672.471,10.538,10.538,0,0,1-2.654-.194A2.941,2.941,0,0,1-92.07-32.3a3.231,3.231,0,0,1,1.11-3.3,5.959,5.959,0,0,1,3.463-.8h5.428a15.384,15.384,0,0,1,.045,2.034M-108.466-41.6a5.3,5.3,0,0,1,6.475-2.553,4.829,4.829,0,0,1,2.76,2.283,7.833,7.833,0,0,1,.745,3.408h-10.588a8.723,8.723,0,0,1,.607-3.137m29.135-.816a5.112,5.112,0,0,0-2.47-3.227,10.74,10.74,0,0,0-5.323-1.132c-2.272,0-4.512.35-6.209,1.878-.114.1-.942.867-.848.947.2.17.4.342.6.52.454.394.916.787,1.371,1.186a5.038,5.038,0,0,1,3.615-2.075,8.575,8.575,0,0,1,4.74.539A3.4,3.4,0,0,1-82.062-41c.017.256.058,2.535.058,2.535h-5.588a11.574,11.574,0,0,0-3.722.484,10.359,10.359,0,0,0-4.237,3.26,27.107,27.107,0,0,1-3.1,3.3,6.76,6.76,0,0,1-2.629,1.35,8.671,8.671,0,0,1-2.832.146,5.419,5.419,0,0,1-3.475-1.692,6.519,6.519,0,0,1-1.456-3.867c-.027-.3-.032-.607-.032-.909h13.521V-37.62c0-2.756-.763-5.753-3.124-7.575a8.944,8.944,0,0,0-8.1-1.1,7.9,7.9,0,0,0-4.905,5.974,15.633,15.633,0,0,0-.235,5.087,10.255,10.255,0,0,0,1.3,4.125,7.836,7.836,0,0,0,6.33,3.6,11.233,11.233,0,0,0,5.408-.775A13.6,13.6,0,0,0-94.5-32.042a4.939,4.939,0,0,0,1.867,3.512,7.19,7.19,0,0,0,3.362,1.006,13.209,13.209,0,0,0,4.229-.228A6.963,6.963,0,0,0-82.024-29.5v1.791c0,.032.212.006.254.006H-79.1V-38.138a16.68,16.68,0,0,0-.228-4.283" transform="translate(112.023 46.795)" fill="#f15a2a"/>
          </g>
          <g id="g32" transform="translate(99.012 30.005)">
            <path id="path34" d="M-32.076-.08l-.317,3.149h-5.918l-.555,4.372h5.943l-.4,3.178h-5.945L-40.4,19.2h-3.41L-41.4-.109Z" transform="translate(43.807 0.109)" fill="#044f94"/>
          </g>
          <g id="g36" transform="translate(110.145 30.013)">
            <path id="path38" d="M-6.37-.08l-2.33,19.2s10.058.192,10.058-.027S1.7,16.05,1.7,16.05H-5.031l.68-5.494H2.408L2.827,7.35H-3.88l.55-4.335H3.4L3.8-.109Z" transform="translate(8.7 0.109)" fill="#044f94"/>
          </g>
          <g id="g40" transform="translate(137.69 30.013)">
            <path id="path42" d="M-6.374-.08-8.7,19.116S1.35,19.308,1.35,19.09,1.7,16.05,1.7,16.05H-5.041l.683-5.494H2.4L2.819,7.35h-6.7l.548-4.335H3.394l.4-3.124Z" transform="translate(8.705 0.109)" fill="#044f94"/>
          </g>
          <g id="g44" transform="translate(122.353 30.066)">
            <path id="path46" d="M-21.041-44.508s-3.151.191-4,.092l1.573-13.061,2.495-.046s3.57,0,4.6,4.306a.392.392,0,0,1,.017.08c1,4.388-1.955,8.267-4.682,8.628m-.817-16.082-4.572-.022-2.308,19.194H-25.4l0-.015c.71.066,4.725.356,7.225-1.014,0,0,5.153-1.993,5.1-9.949,0,0-.3-7.306-8.788-8.195" transform="translate(28.737 60.612)" fill="#044f94"/>
          </g>
          <g id="g48" transform="translate(149.967 30.115)">
            <path id="path50" d="M-14.717-8.439s3.323-.571,3.757,1.34c0,0,.762,3.55-2.7,4.021l-1.7-.016ZM-7.48,7.71-11.793-.548S-8.031-1.2-7.674-6.2a5.22,5.22,0,0,0-5.186-5.289h-4.908L-20.1,7.71h3.443l.952-7.921.455.029v0L-11,7.71Z" transform="translate(20.1 11.492)" fill="#044f94"/>
          </g>
          <g id="g52" transform="translate(163 29.986)">
            <path id="path54" d="M-21.536-33.513l2.725-4.9,1.32,4.926Zm5.968,7.205h3.535l-5.936-19.331-11.443,19.3h3.884l2.27-4.083h6.588Z" transform="translate(29.412 45.639)" fill="#044f94"/>
          </g>
          <g id="g56" transform="translate(181.082 30.161)">
            <path id="path58" d="M-6.542-.08-8.935,19.044h9.2l.348-3.033h-5.7L-3.274-.109Z" transform="translate(8.935 0.109)" fill="#044f94"/>
          </g>
          <g id="g60" transform="translate(50.258 59.073)">
            <path id="path62" d="M0-16.683v-6.036H1.241v5.011H4.328v1.026Z" transform="translate(0 22.719)" fill="#636466"/>
          </g>
          <path id="path64" d="M218.861-118.005H220.1v6.086h-1.242Z" transform="translate(-160.251 177.028)" fill="#636466"/>
          <g id="g66" transform="translate(64.219 59.023)">
            <path id="path68" d="M0-16.821v-6.086H4.214v1.03H1.241v1.44H3.807v1.03H1.241v2.586Z" transform="translate(0 22.907)" fill="#636466"/>
          </g>
          <g id="g70" transform="translate(72.634 59.023)">
            <path id="path72" d="M0-16.821v-6.086H4.558v1.03H1.241v1.349H4.328V-19.5H1.241v1.656H4.676v1.026Z" transform="translate(0 22.907)" fill="#636466"/>
          </g>
          <path id="path74" d="M325.119-118.005h1.241v6.086h-1.241Z" transform="translate(-238.054 177.028)" fill="#636466"/>
          <g id="g76" transform="translate(92.679 59.023)">
            <path id="path78" d="M0-16.821v-6.086H1.208l2.516,4.065v-4.065H4.877v6.086H3.631L1.153-20.789v3.969Z" transform="translate(0 22.907)" fill="#636466"/>
          </g>
          <g id="g80" transform="translate(101.731 58.917)">
            <path id="path82" d="M0-11.639l1.207-.116a1.454,1.454,0,0,0,.442.884,1.348,1.348,0,0,0,.9.282,1.391,1.391,0,0,0,.9-.251.746.746,0,0,0,.3-.587.549.549,0,0,0-.128-.367,1.019,1.019,0,0,0-.446-.264q-.218-.074-.994-.266a3.388,3.388,0,0,1-1.4-.6A1.576,1.576,0,0,1,.223-14.15a1.554,1.554,0,0,1,.266-.87,1.662,1.662,0,0,1,.768-.616,3.1,3.1,0,0,1,1.209-.213,2.614,2.614,0,0,1,1.743.5,1.765,1.765,0,0,1,.614,1.341l-1.241.053a1.038,1.038,0,0,0-.342-.675,1.262,1.262,0,0,0-.786-.205,1.428,1.428,0,0,0-.846.221.442.442,0,0,0-.2.378.466.466,0,0,0,.185.37,3.281,3.281,0,0,0,1.141.407,6.064,6.064,0,0,1,1.339.438,1.715,1.715,0,0,1,.679.619A1.8,1.8,0,0,1,5-11.431a1.781,1.781,0,0,1-.295.98,1.756,1.756,0,0,1-.83.679,3.514,3.514,0,0,1-1.339.222,2.681,2.681,0,0,1-1.79-.533A2.312,2.312,0,0,1,0-11.639" transform="translate(0 15.85)" fill="#636466"/>
          </g>
          <g id="g84" transform="translate(110.94 59.023)">
            <path id="path86" d="M-.008,0H1.234V3.3a6.852,6.852,0,0,0,.046,1.017.985.985,0,0,0,.379.6,1.332,1.332,0,0,0,.82.226,1.259,1.259,0,0,0,.8-.214A.843.843,0,0,0,3.6,4.4a6.826,6.826,0,0,0,.054-1.034V0H4.893V3.2a8.093,8.093,0,0,1-.1,1.549,1.7,1.7,0,0,1-.371.764,1.87,1.87,0,0,1-.723.5,3.173,3.173,0,0,1-1.183.186,3.437,3.437,0,0,1-1.336-.2,1.914,1.914,0,0,1-.719-.523,1.669,1.669,0,0,1-.348-.675A7.291,7.291,0,0,1-.008,3.246Z" transform="translate(0.011)" fill="#636466"/>
          </g>
          <g id="g88" transform="translate(120.335 59.018)">
            <path id="path90" d="M-3.395-7.127h.918A4.78,4.78,0,0,0-1.361-7.2a.669.669,0,0,0,.348-.257.787.787,0,0,0,.126-.457.725.725,0,0,0-.165-.5.766.766,0,0,0-.467-.239q-.151-.021-.905-.02h-.969ZM-4.636-3.615V-9.7h2.613a4.521,4.521,0,0,1,1.432.164,1.41,1.41,0,0,1,.715.585,1.74,1.74,0,0,1,.268.959,1.613,1.613,0,0,1-.406,1.13A1.962,1.962,0,0,1-1.231-6.3a2.894,2.894,0,0,1,.664.51A6.956,6.956,0,0,1,.14-4.8L.89-3.615H-.593l-.9-1.324a8.651,8.651,0,0,0-.654-.895.952.952,0,0,0-.374-.253,2.063,2.063,0,0,0-.625-.069h-.251v2.541Z" transform="translate(4.636 9.706)" fill="#636466"/>
          </g>
          <g id="g92" transform="translate(129.085 59.023)">
            <path id="path94" d="M-10.617-10.166l-.847-2.258-.83,2.258Zm2.285,2.408h-1.35l-.536-1.382h-2.458l-.507,1.382H-14.5l2.394-6.086h1.312Z" transform="translate(14.5 13.844)" fill="#636466"/>
          </g>
          <g id="g96" transform="translate(139.102 59.022)">
            <path id="path98" d="M0-16.822v-6.086H1.207l2.515,4.064v-4.065H4.875v6.087H3.631L1.153-20.791v3.969Z" transform="translate(0 22.909)" fill="#636466"/>
          </g>
          <g id="g100" transform="translate(148.25 58.917)">
            <path id="path102" d="M-11.349-10.929l1.2.378a2.669,2.669,0,0,1-.921,1.48,2.644,2.644,0,0,1-1.634.484,2.657,2.657,0,0,1-2.013-.828,3.151,3.151,0,0,1-.788-2.264,3.306,3.306,0,0,1,.793-2.36,2.731,2.731,0,0,1,2.084-.841,2.572,2.572,0,0,1,1.832.66,2.392,2.392,0,0,1,.629,1.121l-1.229.29a1.286,1.286,0,0,0-.455-.747,1.31,1.31,0,0,0-.841-.274,1.4,1.4,0,0,0-1.109.486,2.366,2.366,0,0,0-.426,1.573,2.535,2.535,0,0,0,.419,1.644,1.368,1.368,0,0,0,1.09.49,1.25,1.25,0,0,0,.851-.311,1.8,1.8,0,0,0,.512-.98" transform="translate(15.5 14.884)" fill="#636466"/>
          </g>
          <g id="g104" transform="translate(157.848 59.023)">
            <path id="path106" d="M0-16.821v-6.086H4.558v1.03H1.241v1.349H4.327V-19.5H1.241v1.656H4.675v1.026Z" transform="translate(0 22.907)" fill="#636466"/>
          </g>
        </g>
      </g>
    </g>
  </g>
</svg>
